<svg viewBox="38 33 180 180" xmlns="http://www.w3.org/2000/svg">
<path d="M57.3615 189.986C57.2665 189.986 57.185 189.986 57.09 189.986C48.9339 189.836 42.447 183.052 42.5963 174.831L44.0755 93.5988C44.1298 70.1413 59.0035 55 81.9792 55C96.7036 55 105.688 61.3055 110.627 66.5851C118.661 75.1611 121.172 86.3222 120.86 94.1049V151.812C120.751 153.644 121.335 156.968 122.909 158.65C123.276 159.033 124.388 160.223 128.243 160.223C130.414 160.223 137.471 159.526 138.081 150.608V124.634C138.027 120.462 138.692 106.976 148.884 96.4985C153.62 91.6155 162.129 85.8024 175.741 85.8024C189.352 85.8024 197.861 91.6155 202.598 96.4985C212.789 106.976 213.454 120.448 213.4 124.634V151.046C213.4 159.266 206.791 165.927 198.635 165.927C190.479 165.927 183.87 159.266 183.87 151.046V124.196C183.911 122.391 183.205 119.067 181.508 117.33C181.088 116.892 179.812 115.579 175.754 115.579C171.697 115.579 170.421 116.892 170 117.33C168.304 119.067 167.598 122.391 167.639 124.196V124.511L167.625 151.812C166.648 170.783 152.819 189.986 128.27 189.986C114.604 189.986 106.19 184.091 101.521 179.153C91.6417 168.663 91.1803 155.258 91.3431 150.731L91.3702 92.8875C91.411 92.0258 90.9496 88.9073 89.1582 87.0061C88.6425 86.459 87.0547 84.7766 81.9927 84.7766C77.6907 84.7766 73.6195 84.7766 73.6195 93.7629V94.0365L72.1402 175.392C71.9909 183.517 65.409 190 57.375 190L57.3615 189.986Z" fill="#44CE4B"/>
</svg>
